<svg width="128" height="128" viewBox="0 0 128 128" fill="none" xmlns="http://www.w3.org/2000/svg">
<path d="M64 0C99.3462 0 128 28.6538 128 64C128 99.3462 99.3462 128 64 128C28.6538 128 0 99.3462 0 64C0 28.6538 28.6538 0 64 0ZM105.771 74.3057C102.97 64.5834 91.9431 59.8903 82.9941 64.6113L74.6426 69.0166C72.82 69.9782 71.9227 72.0872 72.4932 74.0674C73.2568 76.7172 76.262 77.9966 78.7012 76.71L83.626 74.1113C82.4371 76.6018 80.811 78.8801 78.8027 80.8262C75.1092 84.4053 70.3376 86.6657 65.2285 87.2568C60.1193 87.8479 54.9572 86.737 50.5439 84.0957C47.2818 82.1432 44.5634 79.4348 42.6025 76.2236C41.4514 74.3383 39.1545 73.3072 37.1006 74.1201L30.418 76.7666C28.364 77.5798 27.3398 79.9163 28.3613 81.875C31.6428 88.1669 36.6119 93.4561 42.7451 97.127C50.027 101.485 58.5435 103.319 66.9736 102.344C75.4037 101.369 83.2766 97.6389 89.3711 91.7334C93.4354 87.795 96.5561 83.0343 98.5527 77.8105C98.8257 78.3559 99.0543 78.9356 99.2305 79.5469L102.183 89.792C102.862 92.1486 105.535 93.2866 107.704 92.1426C109.325 91.2874 110.124 89.4116 109.616 87.6504L105.771 74.3057ZM83.4512 31.4727C76.1692 27.1143 67.652 25.2806 59.2217 26.2559C50.7916 27.2311 42.9187 30.9606 36.8242 36.8662C33.5333 40.0552 30.8604 43.7832 28.9023 47.8594C28.7636 47.5209 28.6412 47.1706 28.5371 46.8096L25.585 36.5635C24.9056 34.2068 22.2328 33.0694 20.0635 34.2139C18.4425 35.0692 17.6439 36.9449 18.1514 38.7061L21.9961 52.0498C24.7975 61.7719 35.8246 66.4658 44.7734 61.7451L53.125 57.3389C54.9477 56.3773 55.8458 54.2683 55.2754 52.2881C54.5117 49.6381 51.5056 48.3587 49.0664 49.6455L43.6309 52.5127C44.668 50.7878 45.9286 49.1921 47.3926 47.7734C51.0861 44.1943 55.8577 41.9339 60.9668 41.3428C66.076 40.7517 71.2381 41.8625 75.6514 44.5039C78.9136 46.4564 81.6319 49.1648 83.5928 52.376C84.744 54.2611 87.041 55.2922 89.0947 54.4795L95.7773 51.833C97.8313 51.0198 98.8553 48.6833 97.834 46.7246C94.5526 40.4328 89.5843 35.1435 83.4512 31.4727Z" fill="#D9D9D9"/>
</svg>
